<?xml version="1.0" encoding="utf-8"?>
<!-- Generator: Adobe Illustrator 16.2.0, SVG Export Plug-In . SVG Version: 6.00 Build 0)  -->
<!DOCTYPE svg PUBLIC "-//W3C//DTD SVG 1.1//EN" "http://www.w3.org/Graphics/SVG/1.1/DTD/svg11.dtd">
<svg version="1.1" id="Layer_1" xmlns="http://www.w3.org/2000/svg" xmlns:xlink="http://www.w3.org/1999/xlink" x="0px" y="0px"
	 width="670.184px" height="172.199px" viewBox="0 0 670.184 172.199" enable-background="new 0 0 670.184 172.199"
	 xml:space="preserve">
<g>
	<path fill="#00548E" d="M221.672,61.215c0,9.501,0,13.139-1.762,17.304c-1.231,2.933-3.813,5.691-8.564,8.977
		c-0.762,0.526-1.701,1.171-2.287,1.466c-0.117,0.057-0.232,0.118-0.41,0.118c-0.176,0-0.41-0.118-0.41-0.353
		c0-0.353,0.293-0.526,0.82-0.879c0.703-0.413,1.525-1.114,2.053-1.645c3.814-3.869,5.633-6.979,5.633-22.115V47.135
		c0-9.148,0-10.793-0.117-12.669c-0.117-1.995-0.586-2.933-2.522-3.344c-0.47-0.117-1.466-0.176-1.995-0.176
		c-0.234,0-0.469-0.118-0.469-0.353c0-0.353,0.293-0.47,0.938-0.47c2.641,0,6.336,0.178,6.629,0.178s3.99-0.178,5.748-0.178
		c0.646,0,0.939,0.118,0.939,0.47c0,0.234-0.234,0.353-0.469,0.353c-0.411,0-0.762,0.059-1.467,0.176
		c-1.584,0.293-2.053,1.29-2.17,3.344c-0.117,1.876-0.117,3.521-0.117,12.669V61.215z"/>
	<path fill="#00548E" d="M237.92,50.531c0-8.008,0-9.444-0.104-11.088c-0.104-1.744-0.513-2.565-2.207-2.924
		c-0.411-0.104-1.283-0.154-1.746-0.154c-0.205,0-0.409-0.104-0.409-0.309c0-0.308,0.257-0.411,0.821-0.411
		c2.309,0,5.439,0.155,5.902,0.155s3.542-0.155,5.081-0.155c0.564,0,0.821,0.104,0.821,0.411c0,0.205-0.205,0.309-0.41,0.309
		c-0.359,0-0.668,0.051-1.283,0.154c-1.387,0.204-1.796,1.129-1.898,2.924c-0.104,1.644-0.104,3.08-0.104,11.088v7.185
		c0,7.393,1.643,10.574,3.85,12.68c2.515,2.36,4.825,2.821,7.75,2.821c3.131,0,6.21-1.487,8.058-3.695
		c2.362-2.925,2.979-7.287,2.979-12.573v-6.417c0-8.008,0-9.444-0.104-11.088c-0.104-1.744-0.514-2.565-2.209-2.924
		c-0.409-0.104-1.283-0.154-1.744-0.154c-0.205,0-0.41-0.104-0.41-0.309c0-0.308,0.256-0.411,0.82-0.411
		c2.312,0,5.133,0.155,5.441,0.155c0.358,0,2.771-0.155,4.311-0.155c0.564,0,0.822,0.104,0.822,0.411
		c0,0.205-0.206,0.309-0.41,0.309c-0.359,0-0.668,0-1.283,0.154c-1.386,0.255-1.798,1.129-1.899,2.924
		c-0.103,1.644-0.103,3.08-0.103,11.088v5.491c0,5.542-0.617,11.703-4.723,15.348c-3.694,3.285-7.545,3.797-10.573,3.797
		c-1.746,0-6.931-0.203-10.573-3.643c-2.516-2.413-4.465-6.007-4.465-13.5V50.531z"/>
	<path fill="#00548E" d="M285.91,67.468c0.104,4.211,0.615,5.545,2.002,5.955c0.975,0.257,2.104,0.31,2.566,0.31
		c0.254,0,0.41,0.1,0.41,0.307c0,0.309-0.309,0.409-0.925,0.409c-2.925,0-4.979-0.152-5.44-0.152s-2.617,0.152-4.927,0.152
		c-0.514,0-0.821-0.053-0.821-0.409c0-0.207,0.154-0.307,0.409-0.307c0.412,0,1.335-0.053,2.105-0.31
		c1.283-0.358,1.541-1.848,1.541-6.52l0.05-29.41c0-2.002,0.153-2.565,0.565-2.565c0.409,0,1.283,1.129,1.796,1.643
		c0.771,0.871,8.418,9.135,16.322,17.604c5.081,5.442,10.677,11.704,12.318,13.396l-0.564-26.074
		c-0.052-3.336-0.41-4.465-2.003-4.876c-0.922-0.205-2.104-0.256-2.515-0.256c-0.357,0-0.409-0.155-0.409-0.36
		c0-0.308,0.409-0.359,1.025-0.359c2.31,0,4.774,0.155,5.339,0.155s2.257-0.155,4.362-0.155c0.563,0,0.924,0.052,0.924,0.359
		c0,0.205-0.204,0.36-0.565,0.36c-0.256,0-0.615,0-1.23,0.154c-1.694,0.358-1.898,1.486-1.898,4.567l-0.104,30.078
		c0,3.386-0.102,3.645-0.463,3.645c-0.41,0-1.025-0.564-3.746-3.285c-0.564-0.514-7.956-8.059-13.396-13.91
		c-5.955-6.415-11.755-12.883-13.396-14.73L285.91,67.468z"/>
	<path fill="#00548E" d="M338.469,59.565c0,4.926,0,8.982,0.257,11.137c0.153,1.489,0.461,2.617,2.002,2.823
		c0.718,0.104,1.847,0.207,2.309,0.207c0.308,0,0.411,0.151,0.411,0.307c0,0.257-0.256,0.409-0.82,0.409
		c-2.824,0-6.057-0.152-6.314-0.152c-0.257,0-3.49,0.152-5.03,0.152c-0.563,0-0.821-0.101-0.821-0.409
		c0-0.155,0.103-0.307,0.412-0.307c0.461,0,1.076-0.104,1.538-0.207c1.028-0.206,1.283-1.334,1.489-2.823
		c0.256-2.154,0.256-6.211,0.256-11.137v-9.034c0-8.008,0-9.444-0.102-11.088c-0.104-1.744-0.615-2.617-1.745-2.873
		c-0.565-0.154-1.233-0.205-1.591-0.205c-0.207,0-0.412-0.104-0.412-0.309c0-0.308,0.257-0.411,0.821-0.411
		c1.694,0,4.928,0.155,5.185,0.155c0.258,0,3.49-0.155,5.031-0.155c0.563,0,0.82,0.104,0.82,0.411c0,0.205-0.205,0.309-0.411,0.309
		c-0.359,0-0.667,0.051-1.283,0.154c-1.386,0.255-1.796,1.129-1.899,2.924c-0.102,1.644-0.102,3.08-0.102,11.088V59.565z"/>
	<path fill="#00548E" d="M355.515,53.559c0-11.238,6.415-16.886,14.986-16.886c8.109,0,15.603,6.62,15.603,18.939
		c0,14.935-9.546,17.604-14.166,17.604C362.699,73.217,355.515,65.518,355.515,53.559z M350.639,54.997
		c0,9.236,5.85,20.17,19.914,20.17c12.369,0,20.479-9.495,20.479-20.992c0-11.958-8.621-19.247-20.17-19.247
		C356.695,34.928,350.639,46.682,350.639,54.997z"/>
	<path fill="#00548E" d="M406.533,38.212c0-0.308,0.154-0.513,0.41-0.615c0.514-0.155,1.898-0.308,3.438-0.308
		c5.492,0,8.879,3.849,8.879,10.264c0,3.904-1.333,6.674-3.131,7.905c-1.18,0.822-2.618,0.975-3.85,0.975
		c-2.258,0-4.618-0.359-5.389-0.82c-0.257-0.154-0.358-0.36-0.358-0.615V38.212z M402.426,59.565c0,4.926,0,8.982-0.256,11.137
		c-0.206,1.489-0.463,2.617-1.489,2.823c-0.462,0.104-1.077,0.207-1.54,0.207c-0.307,0-0.409,0.151-0.409,0.307
		c0,0.309,0.257,0.409,0.821,0.409c1.539,0,4.773-0.152,4.824-0.152c0.256,0,3.49,0.152,6.313,0.152
		c0.563,0,0.821-0.152,0.821-0.409c0-0.155-0.104-0.307-0.411-0.307c-0.463,0-1.591-0.104-2.31-0.207
		c-1.54-0.206-1.848-1.334-2.002-2.823c-0.256-2.154-0.256-6.211-0.256-11.137v-1.231c0-0.258,0.102-0.412,0.358-0.412l6.313,0.103
		c0.308,0,0.464,0.103,0.668,0.31c1.027,1.334,3.439,4.771,5.596,7.596c2.925,3.85,4.721,6.364,6.928,7.544
		c1.335,0.72,2.618,0.975,5.491,0.975h3.646c0.926,0,1.231-0.101,1.231-0.409c0-0.155-0.206-0.307-0.464-0.307
		c-0.307,0-1.025,0-1.998-0.154c-1.283-0.207-3.492-0.771-6.265-3.695c-2.976-3.187-6.466-7.751-10.676-13.142
		c4.621-4.259,6.212-8.058,6.212-11.855c0-3.543-2.259-6.058-3.542-6.981c-2.72-1.95-6.159-2.259-9.394-2.259
		c-1.591,0-5.491,0.155-6.057,0.155c-0.255,0-3.489-0.155-5.8-0.155c-0.563,0-0.82,0.104-0.82,0.411
		c0,0.205,0.205,0.309,0.411,0.309c0.462,0,1.335,0.051,1.743,0.154c1.695,0.358,2.106,1.18,2.208,2.924
		c0.103,1.644,0.103,3.08,0.103,11.088V59.565z"/>
	<path fill="#00548E" d="M465.08,57.578c0,8.623,0.237,12.375,1.292,13.433c0.938,0.939,2.463,1.349,7.04,1.349
		c3.107,0,5.688-0.06,7.098-1.758c0.762-0.939,1.349-2.406,1.524-3.52c0.06-0.471,0.177-0.767,0.526-0.767
		c0.295,0,0.355,0.235,0.355,0.884c0,0.644-0.413,4.164-0.882,5.865c-0.41,1.349-0.586,1.584-3.695,1.584
		c-8.447,0-12.319-0.353-15.72-0.353c-0.53,0-3.99,0.175-5.751,0.175c-0.645,0-0.937-0.117-0.937-0.47
		c0-0.175,0.114-0.352,0.47-0.352c0.526,0,1.229-0.115,1.759-0.232c1.174-0.235,1.467-1.527,1.701-3.229
		c0.292-2.463,0.292-7.097,0.292-12.729V47.135c0-9.148,0-10.793-0.118-12.669c-0.114-1.995-0.584-2.933-2.522-3.344
		c-0.468-0.117-1.467-0.176-1.99-0.176c-0.235,0-0.47-0.118-0.47-0.353c0-0.353,0.291-0.47,0.937-0.47
		c2.64,0,6.335,0.178,6.63,0.178c0.293,0,4.575-0.178,6.333-0.178c0.647,0,0.939,0.118,0.939,0.47c0,0.234-0.234,0.353-0.47,0.353
		c-0.409,0-1.231,0.059-1.937,0.176c-1.697,0.293-2.168,1.29-2.285,3.344c-0.12,1.876-0.12,3.521-0.12,12.669V57.578z"/>
	<path fill="#00548E" d="M494.751,50.531c0-8.008,0-9.444-0.104-11.088c-0.106-1.744-0.516-2.565-2.208-2.924
		c-0.413-0.104-1.283-0.154-1.747-0.154c-0.204,0-0.41-0.104-0.41-0.309c0-0.308,0.258-0.411,0.822-0.411
		c2.312,0,5.543,0.155,5.801,0.155c0.359,0,10.574,0,11.751-0.052c0.977-0.052,1.799-0.154,2.208-0.258
		c0.258-0.052,0.465-0.255,0.72-0.255c0.155,0,0.203,0.203,0.203,0.461c0,0.359-0.255,0.976-0.407,2.412
		c-0.051,0.515-0.156,2.772-0.258,3.388c-0.051,0.257-0.154,0.565-0.359,0.565c-0.308,0-0.41-0.257-0.41-0.668
		c0-0.357-0.052-1.231-0.307-1.848c-0.36-0.821-0.874-1.438-3.646-1.744c-0.87-0.104-6.467-0.154-7.031-0.154
		c-0.206,0-0.31,0.154-0.31,0.513v14.166c0,0.358,0.055,0.514,0.31,0.514c0.667,0,6.979,0,8.163-0.101
		c1.231-0.106,1.947-0.207,2.408-0.723c0.361-0.409,0.565-0.667,0.771-0.667c0.154,0,0.258,0.106,0.258,0.412
		c0,0.307-0.258,1.181-0.412,2.873c-0.101,1.028-0.203,2.928-0.203,3.286c0,0.412,0,0.977-0.361,0.977
		c-0.255,0-0.358-0.207-0.358-0.465c0-0.512,0-1.024-0.205-1.692c-0.207-0.719-0.665-1.593-2.67-1.796
		c-1.387-0.154-6.468-0.258-7.338-0.258c-0.258,0-0.361,0.155-0.361,0.361v4.517c0,1.744-0.052,7.699,0,8.776
		c0.154,3.539,0.925,4.207,5.958,4.207c1.331,0,3.592,0,4.923-0.563c1.335-0.565,1.951-1.59,2.312-3.695
		c0.104-0.564,0.206-0.771,0.464-0.771c0.307,0,0.307,0.414,0.307,0.771c0,0.41-0.409,3.901-0.667,4.978
		c-0.361,1.335-0.771,1.335-2.772,1.335c-7.75,0-11.191-0.307-12.677-0.307c-0.104,0-0.975,0.052-2.054,0.052
		c-1.029,0.048-2.209,0.101-2.977,0.101c-0.566,0-0.822-0.101-0.822-0.409c0-0.155,0.104-0.307,0.41-0.307
		c0.463,0,1.077-0.104,1.54-0.207c1.026-0.206,1.284-1.334,1.49-2.823c0.258-2.154,0.258-6.211,0.258-11.137V50.531z"/>
	<path fill="#00548E" d="M530.01,57.46c-0.154,0-0.258-0.104-0.154-0.357l4.517-13.86c0.258-0.77,0.513-0.77,0.771,0l4.875,13.86
		c0.052,0.203,0.052,0.357-0.204,0.357H530.01z M522.823,68.803c-0.926,2.567-1.951,4.517-4.311,4.826
		c-0.41,0.051-1.129,0.104-1.489,0.104c-0.258,0-0.461,0.1-0.461,0.307c0,0.309,0.306,0.409,0.977,0.409
		c2.412,0,5.232-0.152,5.797-0.152c0.566,0,2.772,0.152,4.004,0.152c0.465,0,0.771-0.101,0.771-0.409
		c0-0.207-0.154-0.307-0.513-0.307h-0.512c-0.874,0-1.951-0.465-1.951-1.49c0-0.925,0.255-2.156,0.716-3.439l3.079-9.085
		c0.106-0.255,0.258-0.409,0.516-0.409h11.033c0.258,0,0.361,0.102,0.465,0.309l4.773,12.625c0.308,0.822,0,1.283-0.309,1.387
		c-0.207,0.051-0.357,0.154-0.357,0.358c0,0.309,0.561,0.309,1.538,0.36c3.539,0.101,7.289,0.101,8.056,0.101
		c0.564,0,1.029-0.101,1.029-0.409c0-0.256-0.207-0.307-0.514-0.307c-0.516,0-1.282-0.053-2.053-0.31
		c-1.08-0.31-2.567-1.129-4.414-5.697c-3.131-7.802-11.191-29-11.958-30.951c-0.619-1.589-0.822-1.847-1.131-1.847
		c-0.308,0-0.514,0.309-1.13,2.002L522.823,68.803z"/>
	<path fill="#00548E" d="M587.395,61.361c0-4.159-0.258-4.724-2.312-5.288c-0.409-0.103-1.282-0.154-1.743-0.154
		c-0.207,0-0.41-0.101-0.41-0.307c0-0.306,0.255-0.412,0.818-0.412c2.31,0,5.546,0.154,5.801,0.154c0.258,0,3.491-0.154,5.033-0.154
		c0.561,0,0.818,0.106,0.818,0.412c0,0.206-0.206,0.307-0.412,0.307c-0.357,0-0.664,0.052-1.283,0.154
		c-1.384,0.259-1.793,1.129-1.899,2.925c-0.101,1.644-0.101,3.186-0.101,5.339v5.749c0,2.311-0.051,2.415-0.666,2.771
		c-3.285,1.745-7.906,2.31-10.883,2.31c-3.9,0-11.189-0.512-16.887-5.491c-3.131-2.721-6.11-8.211-6.11-14.627
		c0-8.212,4.008-14.012,8.573-16.888c4.62-2.874,9.702-3.233,13.654-3.233c3.233,0,6.877,0.667,7.854,0.873
		c1.077,0.256,2.873,0.461,4.156,0.513c0.516,0.052,0.619,0.257,0.619,0.461c0,0.719-0.361,2.157-0.361,7.29
		c0,0.821-0.104,1.076-0.464,1.076c-0.255,0-0.307-0.307-0.358-0.769c-0.051-0.719-0.309-2.155-1.077-3.387
		c-1.283-1.951-5.438-4.159-12.064-4.159c-3.232,0-7.082,0.31-10.981,3.389c-2.976,2.359-5.084,7.031-5.084,13.038
		c0,7.234,3.646,12.472,5.442,14.215c4.057,3.952,8.725,5.494,13.448,5.494c1.847,0,4.517-0.31,5.851-1.081
		c0.668-0.356,1.028-0.921,1.028-1.795V61.361z"/>
	<path fill="#00548E" d="M605.309,50.531c0-8.008,0-9.444-0.104-11.088c-0.104-1.744-0.513-2.565-2.208-2.924
		c-0.41-0.104-1.284-0.154-1.745-0.154c-0.206,0-0.412-0.104-0.412-0.309c0-0.308,0.258-0.411,0.822-0.411
		c2.309,0,5.442,0.155,5.903,0.155s3.54-0.155,5.081-0.155c0.564,0,0.822,0.104,0.822,0.411c0,0.205-0.206,0.309-0.41,0.309
		c-0.361,0-0.667,0.051-1.283,0.154c-1.39,0.204-1.796,1.129-1.898,2.924c-0.106,1.644-0.106,3.08-0.106,11.088v7.185
		c0,7.393,1.645,10.574,3.85,12.68c2.519,2.36,4.826,2.821,7.75,2.821c3.131,0,6.214-1.487,8.061-3.695
		c2.363-2.925,2.977-7.287,2.977-12.573v-6.417c0-8.008,0-9.444-0.1-11.088c-0.107-1.744-0.514-2.565-2.21-2.924
		c-0.412-0.104-1.282-0.154-1.747-0.154c-0.203,0-0.406-0.104-0.406-0.309c0-0.308,0.256-0.411,0.818-0.411
		c2.31,0,5.134,0.155,5.44,0.155c0.36,0,2.771-0.155,4.313-0.155c0.564,0,0.818,0.104,0.818,0.411c0,0.205-0.203,0.309-0.408,0.309
		c-0.359,0-0.668,0-1.284,0.154c-1.386,0.255-1.796,1.129-1.899,2.924c-0.1,1.644-0.1,3.08-0.1,11.088v5.491
		c0,5.542-0.619,11.703-4.727,15.348c-3.694,3.285-7.544,3.797-10.571,3.797c-1.745,0-6.929-0.203-10.575-3.643
		c-2.512-2.413-4.462-6.007-4.462-13.5V50.531z"/>
	<path fill="#00548E" d="M651.912,50.531c0-8.008,0-9.444-0.104-11.088c-0.102-1.744-0.516-2.565-2.208-2.924
		c-0.409-0.104-1.28-0.154-1.743-0.154c-0.207,0-0.41-0.104-0.41-0.309c0-0.308,0.258-0.411,0.818-0.411
		c2.312,0,5.546,0.155,5.804,0.155c0.358,0,10.572,0,11.751-0.052c0.976-0.052,1.796-0.154,2.21-0.258
		c0.254-0.052,0.461-0.255,0.718-0.255c0.152,0,0.203,0.203,0.203,0.461c0,0.359-0.254,0.976-0.409,2.412
		c-0.051,0.515-0.154,2.772-0.258,3.388c-0.049,0.257-0.154,0.565-0.357,0.565c-0.311,0-0.412-0.257-0.412-0.668
		c0-0.357-0.049-1.231-0.307-1.848c-0.361-0.821-0.874-1.438-3.644-1.744c-0.873-0.104-6.471-0.154-7.034-0.154
		c-0.204,0-0.307,0.154-0.307,0.513v14.166c0,0.358,0.051,0.514,0.307,0.514c0.67,0,6.98,0,8.162-0.101
		c1.231-0.106,1.951-0.207,2.412-0.723c0.361-0.409,0.564-0.667,0.77-0.667c0.156,0,0.256,0.106,0.256,0.412
		c0,0.307-0.256,1.181-0.41,2.873c-0.104,1.028-0.205,2.928-0.205,3.286c0,0.412,0,0.977-0.359,0.977
		c-0.254,0-0.359-0.207-0.359-0.465c0-0.512,0-1.024-0.204-1.692c-0.206-0.719-0.668-1.593-2.669-1.796
		c-1.387-0.154-6.469-0.258-7.342-0.258c-0.255,0-0.357,0.155-0.357,0.361v4.517c0,1.744-0.053,7.699,0,8.776
		c0.154,3.539,0.924,4.207,5.954,4.207c1.333,0,3.592,0,4.927-0.563c1.335-0.565,1.95-1.59,2.309-3.695
		c0.106-0.564,0.206-0.771,0.464-0.771c0.307,0,0.307,0.414,0.307,0.771c0,0.41-0.41,3.901-0.664,4.978
		c-0.361,1.335-0.771,1.335-2.773,1.335c-7.753,0-11.19-0.307-12.677-0.307c-0.106,0-0.977,0.052-2.054,0.052
		c-1.028,0.048-2.208,0.101-2.979,0.101c-0.563,0-0.819-0.101-0.819-0.409c0-0.155,0.104-0.307,0.41-0.307
		c0.462,0,1.077-0.104,1.538-0.207c1.028-0.206,1.284-1.334,1.489-2.823c0.258-2.154,0.258-6.211,0.258-11.137V50.531z"/>
	<path fill="#00548E" d="M267.514,138.003c-1.443,0-2.766-1.143-2.766-3.065c0-2.826,1.443-6.495,3.488-9.741
		c3.006-4.872,6.192-7.154,8.717-7.154c1.984,0,3.068,1.501,3.008,3.366C279.961,125.377,273.768,138.003,267.514,138.003z
		 M268.416,140.891c8.719,0,13.949-11.967,13.949-18.581c0-4.09-2.404-7.034-6.434-7.034c-7.996,0-13.709,10.282-13.709,17.858
		C262.223,137.702,265.107,140.891,268.416,140.891z"/>
	<path fill="#00548E" d="M285.853,119.121c-0.301,0-0.421-0.18-0.301-0.598l0.241-1.022c0.119-0.421,0.24-0.602,0.721-0.602h5.23
		c1.805-5.171,3.849-10.162,7.035-13.712c1.684-1.921,4.989-4.087,8.898-4.087c3.488,0,5.411,2.104,5.411,3.55
		c0,1.861-1.203,2.763-2.405,2.763c-1.923,0-2.464-1.079-2.645-2.406c-0.061-0.599-0.662-1.74-2.466-1.74
		c-5.591,0-7.757,8.899-9.74,15.633h5.833c0.359,0,0.48,0.181,0.359,0.722l-0.299,1.079c-0.061,0.361-0.181,0.421-0.662,0.421
		h-5.713c-1.563,4.872-4.329,15.276-7.336,22.973c-3.667,9.377-7.936,16.051-14.369,16.051c-2.406,0-4.331-1.621-4.331-3.546
		c0-1.384,1.022-2.587,2.587-2.587c1.744,0,2.646,1.685,2.827,2.707c0.118,0.602,0.54,1.023,1.021,1.023
		c2.887,0,6.133-5.054,9.381-16.175l6.072-20.446H285.853z"/>
	<path fill="#00548E" d="M334.324,134.95c-5.691-5.104-7.098-11.792-7.098-17.363c0-3.93,1.35-10.792,6.569-16.014
		c3.519-3.521,8.858-6.278,17.892-6.278c2.346,0,5.632,0.177,8.506,0.704c2.229,0.411,4.105,0.762,5.982,0.882
		c0.646,0.058,0.764,0.292,0.764,0.645c0,0.469-0.178,1.172-0.295,3.285c-0.116,1.937-0.116,5.162-0.175,6.041
		s-0.177,1.23-0.528,1.23c-0.41,0-0.469-0.408-0.469-1.23c0-2.289-0.939-4.692-2.465-5.983c-2.051-1.759-6.568-3.343-11.731-3.343
		c-7.8,0-11.438,2.288-13.491,4.283c-4.283,4.103-5.279,9.325-5.279,15.308c0,11.206,8.623,21.471,21.176,21.471
		c4.398,0,7.86-0.526,10.208-2.933c1.231-1.292,1.993-3.872,2.169-4.926c0.117-0.647,0.234-0.883,0.586-0.883
		c0.295,0,0.412,0.412,0.412,0.883c0,0.408-0.705,5.514-1.291,7.506c-0.352,1.114-0.47,1.231-1.523,1.702
		c-2.348,0.939-6.806,1.349-10.561,1.349C344.882,141.285,338.959,139.115,334.324,134.95z"/>
	<path fill="#00548E" d="M412.004,125.558c0,4.927,0,8.982,0.257,11.137c0.153,1.489,0.462,2.617,2.002,2.824
		c0.718,0.104,1.848,0.205,2.31,0.205c0.308,0,0.41,0.152,0.41,0.308c0,0.258-0.256,0.41-0.82,0.41
		c-2.824,0-6.058-0.152-6.314-0.152c-0.256,0-3.49,0.152-5.029,0.152c-0.564,0-0.821-0.101-0.821-0.41
		c0-0.155,0.103-0.308,0.41-0.308c0.462,0,1.078-0.102,1.54-0.205c1.025-0.207,1.283-1.335,1.488-2.824
		c0.257-2.154,0.257-6.21,0.257-11.137v-5.39c0-0.207-0.153-0.311-0.308-0.311h-21.763c-0.153,0-0.308,0.053-0.308,0.311v5.39
		c0,4.927,0,8.982,0.256,11.137c0.153,1.489,0.462,2.617,2.002,2.824c0.717,0.104,1.848,0.205,2.31,0.205
		c0.308,0,0.41,0.152,0.41,0.308c0,0.258-0.257,0.41-0.819,0.41c-2.824,0-6.058-0.152-6.315-0.152c-0.255,0-3.488,0.152-5.03,0.152
		c-0.564,0-0.82-0.101-0.82-0.41c0-0.155,0.102-0.308,0.412-0.308c0.46,0,1.076-0.102,1.539-0.205
		c1.027-0.207,1.282-1.335,1.488-2.824c0.258-2.154,0.258-6.21,0.258-11.137v-9.034c0-8.008,0-9.446-0.104-11.086
		c-0.104-1.745-0.515-2.567-2.209-2.926c-0.41-0.104-1.283-0.154-1.744-0.154c-0.205,0-0.409-0.104-0.409-0.307
		c0-0.309,0.255-0.412,0.819-0.412c2.312,0,5.545,0.154,5.8,0.154c0.258,0,3.491-0.154,5.031-0.154c0.564,0,0.82,0.104,0.82,0.412
		c0,0.203-0.204,0.307-0.409,0.307c-0.36,0-0.668,0.051-1.283,0.154c-1.387,0.256-1.797,1.128-1.9,2.926
		c-0.102,1.64-0.102,3.078-0.102,11.086v1.077c0,0.258,0.154,0.311,0.308,0.311h21.763c0.154,0,0.308-0.053,0.308-0.311v-1.077
		c0-8.008,0-9.446-0.104-11.086c-0.101-1.745-0.513-2.567-2.207-2.926c-0.409-0.104-1.282-0.154-1.743-0.154
		c-0.207,0-0.412-0.104-0.412-0.307c0-0.309,0.258-0.412,0.82-0.412c2.311,0,5.545,0.154,5.801,0.154c0.257,0,3.49-0.154,5.03-0.154
		c0.564,0,0.821,0.104,0.821,0.412c0,0.203-0.204,0.307-0.411,0.307c-0.359,0-0.666,0.051-1.283,0.154
		c-1.385,0.256-1.796,1.128-1.898,2.926c-0.103,1.64-0.103,3.078-0.103,11.086V125.558z"/>
	<path fill="#00548E" d="M435.612,125.558c0,4.927,0,8.982,0.258,11.137c0.151,1.489,0.464,2.617,2.002,2.824
		c0.717,0.104,1.848,0.205,2.312,0.205c0.307,0,0.406,0.152,0.406,0.308c0,0.258-0.254,0.41-0.818,0.41
		c-2.824,0-6.057-0.152-6.314-0.152c-0.256,0-3.489,0.152-5.03,0.152c-0.562,0-0.819-0.101-0.819-0.41
		c0-0.155,0.101-0.308,0.409-0.308c0.461,0,1.08-0.102,1.541-0.205c1.026-0.207,1.284-1.335,1.487-2.824
		c0.258-2.154,0.258-6.21,0.258-11.137v-9.034c0-8.008,0-9.446-0.102-11.086c-0.105-1.745-0.617-2.619-1.746-2.874
		c-0.563-0.155-1.231-0.206-1.59-0.206c-0.206,0-0.412-0.104-0.412-0.307c0-0.309,0.255-0.412,0.822-0.412
		c1.692,0,4.926,0.154,5.182,0.154c0.258,0,3.49-0.154,5.03-0.154c0.564,0,0.82,0.104,0.82,0.412c0,0.203-0.203,0.307-0.406,0.307
		c-0.361,0-0.671,0.051-1.284,0.154c-1.389,0.256-1.799,1.128-1.901,2.926c-0.104,1.64-0.104,3.078-0.104,11.086V125.558z"/>
	<path fill="#00548E" d="M454.505,135.617c-4.976-4.465-6.207-10.317-6.207-15.191c0-3.44,1.181-9.446,5.746-14.012
		c3.08-3.08,7.751-5.494,15.655-5.494c2.052,0,4.927,0.155,7.441,0.615c1.954,0.361,3.592,0.667,5.237,0.771
		c0.566,0.051,0.666,0.257,0.666,0.563c0,0.41-0.15,1.025-0.258,2.876c-0.1,1.692-0.1,4.517-0.15,5.287
		c-0.053,0.768-0.156,1.077-0.462,1.077c-0.36,0-0.413-0.361-0.413-1.077c0-2.004-0.821-4.108-2.153-5.236
		c-1.796-1.541-5.748-2.927-10.266-2.927c-6.828,0-10.01,2.002-11.806,3.746c-3.747,3.595-4.621,8.16-4.621,13.399
		c0,9.802,7.545,18.784,18.529,18.784c3.85,0,6.88-0.462,8.934-2.566c1.074-1.129,1.744-3.389,1.896-4.311
		c0.104-0.565,0.205-0.771,0.512-0.771c0.258,0,0.361,0.357,0.361,0.771c0,0.357-0.615,4.823-1.131,6.569
		c-0.307,0.974-0.407,1.077-1.333,1.487c-2.054,0.821-5.954,1.181-9.239,1.181C463.745,141.16,458.563,139.261,454.505,135.617z"/>
	<path fill="#00548E" d="M499.417,123.453c-0.152,0-0.255-0.104-0.152-0.358l4.518-13.86c0.254-0.767,0.512-0.767,0.767,0
		l4.879,13.86c0.051,0.204,0.051,0.358-0.207,0.358H499.417z M492.233,134.795c-0.925,2.566-1.951,4.517-4.313,4.827
		c-0.41,0.051-1.129,0.102-1.487,0.102c-0.258,0-0.463,0.102-0.463,0.308c0,0.31,0.309,0.41,0.976,0.41
		c2.411,0,5.236-0.152,5.8-0.152c0.564,0,2.772,0.152,4.004,0.152c0.462,0,0.771-0.101,0.771-0.41c0-0.206-0.154-0.308-0.512-0.308
		h-0.516c-0.875,0-1.952-0.463-1.952-1.489c0-0.924,0.258-2.156,0.72-3.439l3.079-9.085c0.104-0.256,0.258-0.41,0.516-0.41h11.033
		c0.258,0,0.358,0.104,0.464,0.31l4.771,12.625c0.307,0.823,0,1.284-0.309,1.388c-0.203,0.051-0.359,0.154-0.359,0.357
		c0,0.31,0.564,0.31,1.542,0.361c3.54,0.101,7.287,0.101,8.057,0.101c0.564,0,1.026-0.101,1.026-0.41
		c0-0.255-0.204-0.308-0.514-0.308c-0.513,0-1.282-0.051-2.054-0.309c-1.077-0.309-2.566-1.128-4.411-5.696
		c-3.133-7.803-11.189-29.002-11.961-30.951c-0.616-1.59-0.821-1.848-1.128-1.848s-0.513,0.31-1.132,2.002L492.233,134.795z"/>
	<path fill="#00548E" d="M557.827,127.354c0-4.158-0.255-4.723-2.308-5.287c-0.41-0.103-1.284-0.155-1.745-0.155
		c-0.207,0-0.41-0.1-0.41-0.307c0-0.306,0.256-0.409,0.82-0.409c2.309,0,5.542,0.151,5.8,0.151s3.491-0.151,5.029-0.151
		c0.567,0,0.822,0.104,0.822,0.409c0,0.207-0.207,0.307-0.412,0.307c-0.358,0-0.665,0.053-1.284,0.155
		c-1.384,0.258-1.796,1.129-1.896,2.925c-0.105,1.644-0.105,3.185-0.105,5.339v5.748c0,2.312-0.053,2.414-0.665,2.772
		c-3.285,1.745-7.906,2.31-10.884,2.31c-3.899,0-11.188-0.514-16.885-5.491c-3.131-2.722-6.107-8.212-6.107-14.628
		c0-8.211,4.005-14.012,8.57-16.888c4.619-2.873,9.701-3.233,13.653-3.233c3.234,0,6.877,0.666,7.854,0.873
		c1.077,0.258,2.873,0.461,4.157,0.514c0.512,0.051,0.615,0.257,0.615,0.461c0,0.718-0.361,2.156-0.361,7.289
		c0,0.821-0.1,1.077-0.461,1.077c-0.255,0-0.306-0.307-0.357-0.771c-0.052-0.718-0.308-2.153-1.077-3.385
		c-1.283-1.95-5.442-4.159-12.062-4.159c-3.236,0-7.086,0.31-10.984,3.389c-2.977,2.36-5.085,7.031-5.085,13.038
		c0,7.235,3.646,12.471,5.442,14.216c4.057,3.951,8.726,5.493,13.448,5.493c1.848,0,4.517-0.31,5.852-1.08
		c0.668-0.358,1.025-0.922,1.025-1.796V127.354z"/>
	<path fill="#00548E" d="M577.743,119.551c0-11.238,6.419-16.888,14.988-16.888c8.108,0,15.601,6.622,15.601,18.941
		c0,14.935-9.546,17.604-14.163,17.604C584.929,139.208,577.743,131.51,577.743,119.551z M572.867,120.989
		c0,9.237,5.853,20.171,19.915,20.171c12.372,0,20.48-9.495,20.48-20.992c0-11.959-8.624-19.248-20.174-19.248
		C578.925,100.92,572.867,112.674,572.867,120.989z"/>
</g>
<circle fill="#C2B9B5" cx="86.331" cy="86.099" r="76.228"/>
<path fill="#00548E" d="M86.329,164.344c-43.143,0-78.243-35.101-78.243-78.246c0-43.145,35.1-78.246,78.243-78.246
	c43.146,0,78.247,35.101,78.247,78.246C164.576,129.243,129.475,164.344,86.329,164.344z M86.329,11.886
	c-40.919,0-74.209,33.292-74.209,74.213c0,40.921,33.29,74.212,74.209,74.212c40.922,0,74.214-33.292,74.214-74.212
	C160.543,45.177,127.251,11.886,86.329,11.886z"/>
<path fill="#00548E" d="M102.115,58.622c0,7.216,0.255,46.35,0.255,46.35c0,1.993-0.077,6.75,1.128,10.582
	c0.771,2.449,2.283,6.106,4.729,8.554c3.349,3.348,6.398,5.983,12.989,5.983c22.215,0,20.549-22.94,20.549-22.94
	s-1.859,5.482-6.829,7.526c-2.397,0.985-9.452,2.776-12.383-0.632c-1.117-1.299-1.813-3.145-2.179-5.027
	c-0.368-1.88-0.368-5.078-0.368-8.02c0-9.372,0-34.268,0-34.268s0.238-8.758,0.548-10.148c0.229-1.028,0.874-1.934,1.384-2.442
	c0.699-0.7,1.735-0.901,2.074-0.985c0.667-0.167,1.177,0.313,0.853,0.633c0,0-1.901,4.202-0.518,8.777
	c1.454,4.803,5.037,7.079,9.596,6.92c3.164-0.111,5.524-2.14,6.773-5.436c0.765-2.018,1.111-4.75,0.974-6.87
	c-0.361-5.587-6.127-16.037-20.901-15.678C106.013,41.863,102.115,52.426,102.115,58.622z"/>
<path fill="#00548E" d="M74.264,35.207c-0.507-1.588-1.492-2.739-1.492-2.739s-1.121-1.233-2.017-1.667
	c-0.79-0.384-2.651-0.642-3.213-0.678h34.203c0,0-2.392,0.245-3.125,0.678c-0.756,0.444-1.492,0.994-2.027,1.771
	c-0.167,0.239-1.104,1.425-1.553,2.634c-0.263,0.708-0.355,1.429-0.532,3.063c-0.209,1.905-0.227,3.608-0.227,3.809
	c0,2.056,0.24,60.307,0.02,84.108c-0.051,5.399,2.722,8.896,6.382,8.948c3.66,0.051,20.611,0.152,20.611,0.152l10.409-5.809
	l-3.795,11.144l-62.799,0.21c0,0,9.977-2.927,9.977-6.911c0-1.939,0-91.842,0-91.842s-0.117-1.941-0.329-3.809
	C74.576,36.656,74.264,35.207,74.264,35.207z"/>
<path fill="#00548E" d="M48.056,47.974c-0.37-0.716-0.937-1.654-1.715-2.542c-0.564-0.639-1.24-1.253-2.037-1.738
	c-0.88-0.536-1.908-0.914-3.093-0.996h32.229c0,0-2.332,0.204-3.094,0.7c-0.642,0.418-1.329,1.045-1.964,1.934
	c-0.491,0.686-1.288,1.578-1.67,2.551c-0.26,0.659-0.654,2.386-0.654,2.987c0,0.775,0.02,1.279,0.02,3.831
	c0,14.663,0,44.313,0,44.313s0.009,11.443-0.965,15.759c-0.775,3.432-2.353,7.745-5.07,11.088
	c-2.491,3.067-5.995,4.434-10.902,5.246c0,0-22.152,4.032-21.435-20.962c0,0,3.9,7.266,13.09,6.546c0,0,3.095,0.122,5.726-1.981
	c2.026-1.618,2.189-4.651,2.189-7.413c0-1.074-0.048-2.982-0.037-8.424c0.021-12.954-0.032-34.188-0.061-44.172
	c-0.009-3.416-0.009-3.831-0.009-3.831S48.426,48.691,48.056,47.974z"/>
<path fill="#FFFFFF" d="M80.911,34.353h7.386v92.289c0,0,0,1.873,0,2.629c0,0.705,0.299,2.684,0.844,3.747
	c0.584,1.143,1.494,1.968,1.494,1.968h-9.801L80.911,34.353z"/>
<path fill="#FFFFFF" d="M54.005,47.497h6.847v58.363c0,0-0.318,7.6-1.052,9.658c-0.846,2.37-1.077,3.782-3.723,6.809
	c-1.858,2.124-4.699,3.823-7.316,4.21c-12.364,1.828-15.848-6.96-15.848-6.96s5.419,2.893,13.356,0.63
	c1.415-0.401,2.454-0.881,4.087-2.223c0.894-0.733,1.116-1.225,1.805-2.307c0.688-1.081,1.845-5.333,1.845-9.296
	C54.005,102.362,54.005,47.497,54.005,47.497z"/>
<path fill="#FFFFFF" d="M107.869,59.452c0,0-0.074-8.461,6.591-11.885c0,0,3.004-1.826,8.819-1.826
	c5.504,0,11.826,3.516,13.407,7.917l-7.302,0.007c1.476-1.754-0.088-3.149-1.893-4.142c-1.012-0.553-3.248-0.546-5.712-0.113
	c-3.761,0.656-7.32,5.376-7.32,8.67c0,0.382-0.218,3.741-0.218,8.226c0.009,13.452,0.026,39.054,0.026,39.054
	s0.523,3.166,1.063,5.964c0.535,2.797,1.687,4.628,3.001,5.863c3.753,3.521,10.188,5.374,18.707-0.07c0,0-5.164,7.888-12.506,8.239
	c-3.478,0.166-8.289-0.788-11.591-4.165c-3.95-4.042-4.881-12.092-4.881-16.147C108.062,98.197,107.869,59.452,107.869,59.452z"/>
<path fill="#FFFFFF" d="M137.669,58.081c0,4.379-1.661,7.407-4.448,7.407s-4.648-3.027-4.648-7.407s2.236-7.929,4.362-7.929
	C135.722,50.152,137.669,54.194,137.669,58.081z"/>
<path fill="#00548E" d="M86.098,172.199C38.623,172.199,0,133.575,0,86.099C0,38.624,38.623,0,86.098,0
	c47.477,0,86.102,38.624,86.102,86.099C172.199,133.575,133.574,172.199,86.098,172.199z M86.098,4.438
	c-45.027,0-81.66,36.633-81.66,81.661c0,45.029,36.633,81.663,81.66,81.663c45.03,0,81.664-36.634,81.664-81.663
	C167.762,41.071,131.127,4.438,86.098,4.438z"/>
</svg>
